<svg width="592" height="350" viewBox="0 0 592 350" fill="none" xmlns="http://www.w3.org/2000/svg">
<path d="M232.544 150.372C232.544 233.42 294.22 300.743 294.22 300.743C294.22 300.743 355.896 233.42 355.896 150.372C355.896 67.3249 294.22 -0.252085 294.22 0.00168899C294.22 0.00168899 232.544 67.3249 232.544 150.372Z" fill="url(#paint0_linear_130_45)" fill-opacity="0.8"/>
<path d="M417.072 200.859C375.188 273.404 287.821 301.376 287.821 301.376C287.821 301.376 268.361 211.728 310.245 139.183C352.129 66.6381 439.624 38.4452 439.496 38.6669C439.496 38.6669 458.956 128.314 417.072 200.859Z" fill="url(#paint1_linear_130_45)" fill-opacity="0.8"/>
<path d="M172.158 200.112C214.042 272.657 301.409 300.628 301.409 300.628C301.409 300.628 320.868 210.981 278.984 138.436C237.1 65.891 149.606 37.6982 149.734 37.9198C149.734 37.9198 130.274 127.567 172.158 200.112Z" fill="url(#paint2_linear_130_45)" fill-opacity="0.8"/>
<path d="M445.187 273.019C372.642 314.903 282.994 295.443 282.994 295.443C282.994 295.443 310.965 208.076 383.51 166.192C456.055 124.308 545.924 143.64 545.703 143.768C545.703 143.768 517.732 231.135 445.187 273.019Z" fill="url(#paint3_linear_130_45)" fill-opacity="0.8"/>
<path d="M144.043 272.275C216.588 314.159 306.235 294.699 306.235 294.699C306.235 294.699 278.264 207.332 205.719 165.448C133.174 123.564 43.305 142.896 43.5267 143.024C43.5267 143.024 71.4979 230.391 144.043 272.275Z" fill="url(#paint4_linear_130_45)" fill-opacity="0.8"/>
<path d="M439.746 332.046C355.979 332.046 288.071 270.37 288.071 270.37C288.071 270.37 355.979 208.693 439.746 208.693C523.514 208.693 591.677 270.37 591.421 270.37C591.421 270.37 523.514 332.046 439.746 332.046Z" fill="url(#paint5_linear_130_45)" fill-opacity="0.8"/>
<path d="M151.676 342.855C235.443 342.855 303.351 281.178 303.351 281.178C303.351 281.178 235.443 219.502 151.676 219.502C67.9079 219.502 -0.255255 281.178 0.000720195 281.178C0.000720195 281.178 67.9079 342.855 151.676 342.855Z" fill="url(#paint6_linear_130_45)" fill-opacity="0.8"/>
<path d="M333.958 303.261L276.195 301.584C279.371 292.249 280.656 286.903 280.481 276.801C280.114 271.096 279.124 266.995 276.195 258.354L265.76 236.181L257.375 215.684C254.372 207.547 252.507 201.835 251.599 192.579C250.667 183.078 251.36 176.626 252.903 168.169C253.904 161.176 255.349 157.705 257.375 152.144C260.864 145.164 263.141 141.518 268.742 136.306C273.264 132.841 276.215 131.268 282.344 129.225C290.01 127.052 294.382 126.744 302.282 127.362C312.531 129.642 316.78 132.661 322.033 140.219C328.323 149.27 325.717 156.365 325.946 168.169C327.153 169.966 328.813 173.33 329.859 176.927C331.992 184.264 330.799 189.158 329.859 196.492C328.533 190.453 322.396 182.422 322.209 182.236C322.023 182.049 318.332 178.577 311.785 176.927C309.002 176.017 304.358 174.655 300.556 172.546C296.096 170.072 292.586 166.84 291.474 166.119C289.415 164.786 286.077 160.295 282.344 161.647C279.401 162.713 278.174 165.078 277.686 168.169C276.568 175.25 275.648 181.747 276.754 190.343C278.6 204.691 284.58 216.988 291.661 224.255C298.741 231.522 305.263 236.181 305.263 236.181C317.544 246.956 328.32 251.24 333.958 266.553C337.732 276.801 337.675 286.21 333.958 303.261Z" fill="white"/>
<path d="M323.155 79.9567C323.156 80.488 323.025 81.0111 322.773 81.479C322.522 81.947 322.158 82.345 321.714 82.6372C321.271 82.9295 320.761 83.1068 320.232 83.1533C319.703 83.1997 319.171 83.1137 318.683 82.9031L310.703 102.152H278.816L270.842 82.9121C270.122 83.2145 269.316 83.2431 268.576 82.9924C267.835 82.7417 267.212 82.229 266.824 81.5509C266.436 80.8728 266.309 80.0762 266.467 79.3109C266.625 78.5456 267.057 77.8646 267.683 77.396C268.308 76.9275 269.083 76.7037 269.862 76.767C270.641 76.8302 271.37 77.176 271.911 77.7392C272.453 78.3025 272.77 79.0444 272.803 79.8251C272.835 80.6059 272.582 81.3717 272.089 81.9782L283.234 91.0992L285.914 74.9069C285.159 74.773 284.478 74.373 283.993 73.7797C283.509 73.1863 283.253 72.4387 283.272 71.6728C283.291 70.9068 283.585 70.1731 284.099 69.6049C284.613 69.0367 285.313 68.6717 286.074 68.576C286.834 68.4803 287.603 68.6604 288.242 69.0835C288.881 69.5066 289.347 70.1447 289.555 70.882C289.764 71.6193 289.701 72.4069 289.378 73.1019C289.056 73.7969 288.495 74.3532 287.797 74.6699L294.754 89.6581L301.726 74.6315C301.032 74.3044 300.479 73.7394 300.167 73.0391C299.855 72.3389 299.804 71.5498 300.024 70.8154C300.244 70.0809 300.721 69.4498 301.367 69.0367C302.012 68.6237 302.785 68.456 303.544 68.5643C304.303 68.6726 304.998 69.0496 305.503 69.6268C306.008 70.2041 306.288 70.9432 306.294 71.7099C306.3 72.4766 306.031 73.22 305.535 73.805C305.04 74.39 304.351 74.7778 303.594 74.8979L306.275 91.0928L317.453 81.959C317.133 81.5596 316.913 81.0893 316.813 80.5875C316.712 80.0858 316.733 79.5672 316.873 79.0751C317.014 78.5831 317.271 78.132 317.622 77.7596C317.973 77.3872 318.408 77.1043 318.891 76.9348C319.374 76.7652 319.891 76.7138 320.398 76.785C320.904 76.8561 321.387 77.0477 321.804 77.3436C322.222 77.6396 322.562 78.0313 322.797 78.4859C323.032 78.9406 323.155 79.4449 323.155 79.9567ZM313.975 110.862H275.544V118.548H313.975V110.862ZM310.42 104.2H279.135V108.812H310.42V104.2Z" fill="white"/>
<defs>
<linearGradient id="paint0_linear_130_45" x1="294.22" y1="0.000976562" x2="294.22" y2="300.743" gradientUnits="userSpaceOnUse">
<stop stop-color="#002AD2"/>
<stop offset="1" stop-color="#00092B"/>
</linearGradient>
<linearGradient id="paint1_linear_130_45" x1="439.496" y1="38.6663" x2="287.821" y2="301.376" gradientUnits="userSpaceOnUse">
<stop stop-color="#002AD2"/>
<stop offset="1" stop-color="#00092B"/>
</linearGradient>
<linearGradient id="paint2_linear_130_45" x1="149.733" y1="37.9192" x2="301.409" y2="300.628" gradientUnits="userSpaceOnUse">
<stop stop-color="#002AD2"/>
<stop offset="1" stop-color="#00092B"/>
</linearGradient>
<linearGradient id="paint3_linear_130_45" x1="545.703" y1="143.768" x2="282.994" y2="295.443" gradientUnits="userSpaceOnUse">
<stop stop-color="#002AD2"/>
<stop offset="1" stop-color="#00092B"/>
</linearGradient>
<linearGradient id="paint4_linear_130_45" x1="43.5261" y1="143.024" x2="306.235" y2="294.699" gradientUnits="userSpaceOnUse">
<stop stop-color="#002AD2"/>
<stop offset="1" stop-color="#00092B"/>
</linearGradient>
<linearGradient id="paint5_linear_130_45" x1="591.422" y1="270.37" x2="288.071" y2="270.37" gradientUnits="userSpaceOnUse">
<stop stop-color="#002AD2"/>
<stop offset="1" stop-color="#00092B"/>
</linearGradient>
<linearGradient id="paint6_linear_130_45" x1="1.59184e-06" y1="281.178" x2="303.351" y2="281.178" gradientUnits="userSpaceOnUse">
<stop stop-color="#002AD2"/>
<stop offset="1" stop-color="#00092B"/>
</linearGradient>
</defs>
</svg>
